<svg xmlns="http://www.w3.org/2000/svg" xmlns:xlink="http://www.w3.org/1999/xlink" width="500" zoomAndPan="magnify" viewBox="0 0 375 225" height="300" preserveAspectRatio="xMidYMid meet" version="1.0"><defs><g/></defs><g fill="#023047" fill-opacity="1"><g transform="translate(-13.555503, 93.387664)"><g><path d="M 44.625 -50.59375 L 53.90625 -44.109375 L 47.421875 -34.953125 L 39.53125 -40.421875 L 33.9375 -32.546875 L 24.65625 -38.765625 L 31.140625 -48.046875 L 39.15625 -42.453125 Z M 44.625 -50.59375 "/></g></g></g><g fill="#023047" fill-opacity="1"><g transform="translate(0.046875, 137.627169)"><g><path d="M 59.109375 -2.671875 L 6.359375 8.640625 L 6.359375 -58.859375 C 6.359375 -60.640625 6.90625 -62.207031 8 -63.5625 C 9.101562 -64.914062 10.503906 -65.765625 12.203125 -66.109375 L 32.15625 -70.421875 C 36.820312 -71.441406 41.1875 -71.082031 45.25 -69.34375 C 49.320312 -67.601562 52.648438 -64.910156 55.234375 -61.265625 C 57.816406 -57.628906 59.109375 -53.4375 59.109375 -48.6875 Z M 13.09375 -26.953125 L 53.390625 -35.59375 C 54.742188 -35.84375 55.421875 -36.691406 55.421875 -38.140625 C 55.421875 -38.898438 55.101562 -39.535156 54.46875 -40.046875 C 53.832031 -40.554688 53.132812 -40.722656 52.375 -40.546875 L 11.953125 -31.90625 C 10.597656 -31.570312 9.921875 -30.722656 9.921875 -29.359375 C 9.921875 -28.597656 10.238281 -27.960938 10.875 -27.453125 C 11.507812 -26.953125 12.25 -26.785156 13.09375 -26.953125 Z M 13.09375 -26.953125 "/></g></g></g><g fill="#023047" fill-opacity="1"><g transform="translate(65.51629, 137.627169)"><g><path d="M 36.734375 -32.03125 L 40.421875 -32.03125 L 40.421875 9.03125 C 40.421875 13.257812 39.488281 17.238281 37.625 20.96875 C 35.757812 24.695312 33.21875 27.832031 30 30.375 C 26.78125 32.925781 23.09375 34.664062 18.9375 35.59375 L -14.75 42.84375 L -14.75 8.640625 L 28.609375 -0.640625 C 31.066406 -1.140625 33.035156 -2.34375 34.515625 -4.25 C 35.992188 -6.164062 36.734375 -8.351562 36.734375 -10.8125 Z M 36.734375 -32.03125 "/></g></g></g><g fill="#023047" fill-opacity="1"><g transform="translate(112.298317, 137.627169)"><g><path d="M 6.359375 60.640625 L 6.359375 26.4375 L 47.296875 17.671875 C 49.660156 17.160156 51.601562 15.953125 53.125 14.046875 C 54.65625 12.140625 55.421875 9.957031 55.421875 7.5 L 55.421875 3.3125 L 20.71875 10.8125 C 16.820312 11.65625 13.453125 10.929688 10.609375 8.640625 C 7.773438 6.359375 6.359375 3.222656 6.359375 -0.765625 L 6.359375 -46.78125 C 6.359375 -48.476562 6.90625 -50.023438 8 -51.421875 C 9.101562 -52.816406 10.503906 -53.6875 12.203125 -54.03125 L 32.296875 -58.21875 C 36.867188 -59.238281 41.207031 -58.878906 45.3125 -57.140625 C 49.425781 -55.398438 52.753906 -52.726562 55.296875 -49.125 C 57.835938 -45.53125 59.109375 -41.359375 59.109375 -36.609375 L 59.109375 -31.65625 L 70.546875 -34.203125 L 70.546875 0 L 59.109375 2.546875 L 59.109375 27.328125 C 59.109375 31.566406 58.175781 35.550781 56.3125 39.28125 C 54.445312 43.007812 51.90625 46.144531 48.6875 48.6875 C 45.46875 51.226562 41.78125 52.96875 37.625 53.90625 Z M 10.046875 -21.234375 L 55.421875 -31.015625 L 55.421875 -36.234375 L 10.046875 -26.4375 Z M 10.046875 -21.234375 "/></g></g></g><g fill="#023047" fill-opacity="1"><g transform="translate(176.369309, 79.276803)"><g><path d="M 26.703125 -32.921875 L 33.3125 -42.078125 L 42.328125 -35.59375 L 35.84375 -26.3125 Z M 26.703125 -32.921875 "/></g></g></g><g fill="#023047" fill-opacity="1"><g transform="translate(182.852685, 137.627169)"><g><path d="M 61.53125 -56.703125 L 61.53125 -38.015625 L 70.546875 -39.921875 L 70.546875 -5.71875 L 26.1875 3.8125 C 23.8125 4.320312 21.710938 3.832031 19.890625 2.34375 C 18.066406 0.863281 17.15625 -1.0625 17.15625 -3.4375 L 17.15625 -3.6875 L 0 0 L -3.8125 0.765625 L -3.8125 -33.3125 L 0 -34.203125 L 9.15625 -36.234375 L 9.15625 -67.125 C 9.15625 -68.820312 9.703125 -70.347656 10.796875 -71.703125 C 11.898438 -73.054688 13.300781 -73.898438 15 -74.234375 L 34.703125 -78.3125 C 39.367188 -79.320312 43.734375 -78.957031 47.796875 -77.21875 C 51.867188 -75.488281 55.175781 -72.820312 57.71875 -69.21875 C 60.257812 -65.613281 61.53125 -61.441406 61.53125 -56.703125 Z M 12.84375 -40.171875 C 12.84375 -39.328125 13.160156 -38.648438 13.796875 -38.140625 C 14.429688 -37.628906 15.128906 -37.457031 15.890625 -37.625 L 55.9375 -46.015625 C 57.207031 -46.273438 57.84375 -47.125 57.84375 -48.5625 C 57.84375 -49.40625 57.546875 -50.0625 56.953125 -50.53125 C 56.359375 -51 55.640625 -51.148438 54.796875 -50.984375 L 14.875 -42.59375 C 13.519531 -42.332031 12.84375 -41.523438 12.84375 -40.171875 Z M 12.84375 -40.171875 "/></g></g></g><g fill="#023047" fill-opacity="1"><g transform="translate(253.407064, 131.906542)"><g><path d="M 20.96875 -72.71875 L 20.96875 -30.890625 L 36.609375 -34.203125 L 36.609375 0 L 17.28125 4.1875 L 17.28125 -3.6875 L 0 0 L -3.8125 0.765625 L -3.8125 -33.3125 L 0 -34.203125 L 17.28125 -37.890625 L 17.28125 -99.03125 L 26.5625 -99.03125 Z M 20.96875 -72.71875 "/></g></g></g><g fill="#023047" fill-opacity="1"><g transform="translate(274.255544, 190.892525)"><g><path d="M 44.625 -50.59375 L 53.90625 -44.109375 L 47.421875 -34.953125 L 39.53125 -40.421875 L 33.9375 -32.546875 L 24.65625 -38.765625 L 31.140625 -48.046875 L 39.15625 -42.453125 Z M 44.625 -50.59375 "/></g></g></g><g fill="#023047" fill-opacity="1"><g transform="translate(290.019047, 130.253913)"><g><path d="M 31.90625 -31.40625 L 53.78125 -36.234375 L 53.78125 -2.03125 L 33.4375 2.421875 C 31.144531 2.921875 29.085938 2.453125 27.265625 1.015625 C 25.441406 -0.421875 24.53125 -2.328125 24.53125 -4.703125 L 24.53125 -9.15625 C 22.15625 -6.4375 19.441406 -4.421875 16.390625 -3.109375 C 13.347656 -1.796875 10.382812 -0.800781 7.5 -0.125 L 0 1.65625 L -3.8125 2.421875 L -3.8125 -31.65625 L 0 -32.546875 L 22.5 -37.375 C 24.195312 -37.800781 25.59375 -38.671875 26.6875 -39.984375 C 27.789062 -41.296875 28.34375 -42.84375 28.34375 -44.625 L 28.34375 -56.0625 L 31.90625 -56.0625 Z M 31.90625 -31.40625 "/></g></g></g><g fill="#023047" fill-opacity="1"><g transform="translate(324.978411, 175.129021)"><g><path d="M 27.078125 -34.953125 L 33.6875 -44.109375 L 42.71875 -37.625 L 36.234375 -28.34375 Z M 27.078125 -34.953125 "/></g></g></g><g fill="#023047" fill-opacity="1"><g transform="translate(343.79291, 128.219909)"><g><path d="M 5.46875 -1.140625 L -3.8125 0.765625 L -3.8125 -33.3125 L 15.25 -37.75 C 16.945312 -38.175781 18.347656 -39.066406 19.453125 -40.421875 C 20.554688 -41.773438 21.109375 -43.300781 21.109375 -45 L 21.109375 -56.1875 L 24.796875 -56.1875 L 24.796875 -24.921875 C 24.796875 -18.984375 23.015625 -13.832031 19.453125 -9.46875 C 15.890625 -5.101562 11.226562 -2.328125 5.46875 -1.140625 Z M 5.46875 -1.140625 "/></g></g></g><path stroke-linecap="butt" transform="matrix(0.713149, -0.232202, 0.232202, 0.713149, 344.398286, 159.807191)" fill="none" stroke-linejoin="miter" d="M 0.00221662 2.500413 L 35.232832 2.501733 " stroke="#3977e8" stroke-width="5" stroke-opacity="1" stroke-miterlimit="4"/><path stroke-linecap="butt" transform="matrix(0.712494, -0.234206, 0.234206, 0.712494, 67.463868, 109.648217)" fill="none" stroke-linejoin="miter" d="M 0.00167381 2.50088 L 59.014905 2.502196 " stroke="#3977e8" stroke-width="5" stroke-opacity="1" stroke-miterlimit="4"/></svg>