<svg xmlns="http://www.w3.org/2000/svg" xmlns:xlink="http://www.w3.org/1999/xlink" width="500" zoomAndPan="magnify" viewBox="0 0 375 225" height="300" preserveAspectRatio="xMidYMid meet" version="1.0"><defs><g/></defs><g fill="#ffffff" fill-opacity="1"><g transform="translate(-13.534568, 91.542197)"><g><path d="M 44.609375 -50.59375 L 53.890625 -44.109375 L 47.40625 -34.953125 L 39.53125 -40.421875 L 33.9375 -32.546875 L 24.65625 -38.765625 L 31.140625 -48.046875 L 39.15625 -42.453125 Z M 44.609375 -50.59375 "/></g></g></g><g fill="#ffffff" fill-opacity="1"><g transform="translate(0.0661256, 135.776223)"><g><path d="M 59.109375 -2.671875 L 6.359375 8.640625 L 6.359375 -58.859375 C 6.359375 -60.628906 6.90625 -62.191406 8 -63.546875 C 9.101562 -64.910156 10.503906 -65.757812 12.203125 -66.09375 L 32.15625 -70.421875 C 36.820312 -71.429688 41.1875 -71.066406 45.25 -69.328125 C 49.320312 -67.597656 52.648438 -64.910156 55.234375 -61.265625 C 57.816406 -57.617188 59.109375 -53.425781 59.109375 -48.6875 Z M 13.09375 -26.953125 L 53.390625 -35.59375 C 54.742188 -35.84375 55.421875 -36.6875 55.421875 -38.125 C 55.421875 -38.894531 55.101562 -39.53125 54.46875 -40.03125 C 53.832031 -40.539062 53.132812 -40.710938 52.375 -40.546875 L 11.953125 -31.90625 C 10.597656 -31.5625 9.921875 -30.710938 9.921875 -29.359375 C 9.921875 -28.597656 10.238281 -27.960938 10.875 -27.453125 C 11.507812 -26.941406 12.25 -26.773438 13.09375 -26.953125 Z M 13.09375 -26.953125 "/></g></g></g><g fill="#ffffff" fill-opacity="1"><g transform="translate(65.519141, 135.776223)"><g><path d="M 36.734375 -32.03125 L 40.421875 -32.03125 L 40.421875 9.03125 C 40.421875 13.257812 39.488281 17.238281 37.625 20.96875 C 35.757812 24.695312 33.21875 27.832031 30 30.375 C 26.78125 32.914062 23.09375 34.65625 18.9375 35.59375 L -14.75 42.828125 L -14.75 8.640625 L 28.59375 -0.640625 C 31.050781 -1.140625 33.019531 -2.34375 34.5 -4.25 C 35.988281 -6.164062 36.734375 -8.347656 36.734375 -10.796875 Z M 36.734375 -32.03125 "/></g></g></g><g fill="#ffffff" fill-opacity="1"><g transform="translate(112.289445, 135.776223)"><g><path d="M 6.359375 60.625 L 6.359375 26.4375 L 47.28125 17.671875 C 49.65625 17.160156 51.601562 15.953125 53.125 14.046875 C 54.65625 12.140625 55.421875 9.957031 55.421875 7.5 L 55.421875 3.3125 L 20.71875 10.796875 C 16.820312 11.648438 13.453125 10.929688 10.609375 8.640625 C 7.773438 6.359375 6.359375 3.222656 6.359375 -0.765625 L 6.359375 -46.78125 C 6.359375 -48.46875 6.90625 -50.007812 8 -51.40625 C 9.101562 -52.8125 10.503906 -53.679688 12.203125 -54.015625 L 32.28125 -58.21875 C 36.863281 -59.226562 41.207031 -58.863281 45.3125 -57.125 C 49.425781 -55.394531 52.753906 -52.726562 55.296875 -49.125 C 57.835938 -45.519531 59.109375 -41.347656 59.109375 -36.609375 L 59.109375 -31.65625 L 70.546875 -34.1875 L 70.546875 0 L 59.109375 2.546875 L 59.109375 27.328125 C 59.109375 31.566406 58.175781 35.550781 56.3125 39.28125 C 54.445312 43.007812 51.90625 46.144531 48.6875 48.6875 C 45.46875 51.226562 41.78125 52.960938 37.625 53.890625 Z M 10.046875 -21.234375 L 55.421875 -31.015625 L 55.421875 -36.21875 L 10.046875 -26.4375 Z M 10.046875 -21.234375 "/></g></g></g><g fill="#ffffff" fill-opacity="1"><g transform="translate(176.352532, 77.433067)"><g><path d="M 26.6875 -32.921875 L 33.296875 -42.078125 L 42.328125 -35.59375 L 35.84375 -26.3125 Z M 26.6875 -32.921875 "/></g></g></g><g fill="#ffffff" fill-opacity="1"><g transform="translate(182.835102, 135.776223)"><g><path d="M 61.515625 -56.6875 L 61.515625 -38 L 70.546875 -39.90625 L 70.546875 -5.71875 L 26.1875 3.8125 C 23.8125 4.320312 21.710938 3.832031 19.890625 2.34375 C 18.066406 0.863281 17.15625 -1.0625 17.15625 -3.4375 L 17.15625 -3.6875 L 0 0 L -3.8125 0.765625 L -3.8125 -33.296875 L 0 -34.1875 L 9.15625 -36.21875 L 9.15625 -67.109375 C 9.15625 -68.804688 9.703125 -70.332031 10.796875 -71.6875 C 11.898438 -73.039062 13.300781 -73.890625 15 -74.234375 L 34.703125 -78.296875 C 39.359375 -79.316406 43.71875 -78.957031 47.78125 -77.21875 C 51.851562 -75.476562 55.160156 -72.804688 57.703125 -69.203125 C 60.242188 -65.609375 61.515625 -61.4375 61.515625 -56.6875 Z M 12.84375 -40.171875 C 12.84375 -39.316406 13.160156 -38.632812 13.796875 -38.125 C 14.429688 -37.625 15.128906 -37.457031 15.890625 -37.625 L 55.921875 -46.015625 C 57.191406 -46.265625 57.828125 -47.113281 57.828125 -48.5625 C 57.828125 -49.40625 57.53125 -50.054688 56.9375 -50.515625 C 56.351562 -50.984375 55.632812 -51.132812 54.78125 -50.96875 L 14.875 -42.578125 C 13.519531 -42.328125 12.84375 -41.523438 12.84375 -40.171875 Z M 12.84375 -40.171875 "/></g></g></g><g fill="#ffffff" fill-opacity="1"><g transform="translate(253.380758, 130.056294)"><g><path d="M 20.96875 -72.703125 L 20.96875 -30.890625 L 36.609375 -34.1875 L 36.609375 0 L 17.28125 4.1875 L 17.28125 -3.6875 L 0 0 L -3.8125 0.765625 L -3.8125 -33.296875 L 0 -34.1875 L 17.28125 -37.875 L 17.28125 -99.015625 L 26.5625 -99.015625 Z M 20.96875 -72.703125 "/></g></g></g><g fill="#ffffff" fill-opacity="1"><g transform="translate(274.226661, 189.034974)"><g><path d="M 44.609375 -50.59375 L 53.890625 -44.109375 L 47.40625 -34.953125 L 39.53125 -40.421875 L 33.9375 -32.546875 L 24.65625 -38.765625 L 31.140625 -48.046875 L 39.15625 -42.453125 Z M 44.609375 -50.59375 "/></g></g></g><g fill="#ffffff" fill-opacity="1"><g transform="translate(289.988222, 128.403865)"><g><path d="M 31.90625 -31.390625 L 53.765625 -36.21875 L 53.765625 -2.03125 L 33.4375 2.421875 C 31.144531 2.921875 29.085938 2.453125 27.265625 1.015625 C 25.441406 -0.421875 24.53125 -2.328125 24.53125 -4.703125 L 24.53125 -9.15625 C 22.15625 -6.4375 19.441406 -4.421875 16.390625 -3.109375 C 13.347656 -1.796875 10.382812 -0.800781 7.5 -0.125 L 0 1.65625 L -3.8125 2.421875 L -3.8125 -31.65625 L 0 -32.546875 L 22.5 -37.375 C 24.195312 -37.789062 25.59375 -38.65625 26.6875 -39.96875 C 27.789062 -41.289062 28.34375 -42.835938 28.34375 -44.609375 L 28.34375 -56.0625 L 31.90625 -56.0625 Z M 31.90625 -31.390625 "/></g></g></g><g fill="#ffffff" fill-opacity="1"><g transform="translate(324.943256, 173.273446)"><g><path d="M 27.078125 -34.953125 L 33.6875 -44.109375 L 42.703125 -37.625 L 36.21875 -28.34375 Z M 27.078125 -34.953125 "/></g></g></g><g fill="#ffffff" fill-opacity="1"><g transform="translate(343.755442, 126.370114)"><g><path d="M 5.46875 -1.140625 L -3.8125 0.765625 L -3.8125 -33.296875 L 15.25 -37.75 C 16.945312 -38.175781 18.34375 -39.066406 19.4375 -40.421875 C 20.539062 -41.773438 21.09375 -43.300781 21.09375 -45 L 21.09375 -56.1875 L 24.78125 -56.1875 L 24.78125 -24.90625 C 24.78125 -18.976562 23 -13.832031 19.4375 -9.46875 C 15.882812 -5.101562 11.226562 -2.328125 5.46875 -1.140625 Z M 5.46875 -1.140625 "/></g></g></g><path stroke-linecap="butt" transform="matrix(0.727419, -0.182653, 0.182653, 0.727419, 352.225826, 156.738723)" fill="none" stroke-linejoin="miter" d="M 0.000811547 1.497831 L 24.202594 1.501355 " stroke="#ffffff" stroke-width="3" stroke-opacity="1" stroke-miterlimit="4"/><path stroke-linecap="butt" transform="matrix(0.712494, -0.234206, 0.234206, 0.712494, 67.698081, 110.360703)" fill="none" stroke-linejoin="miter" d="M 0.00166066 1.500888 L 59.014892 1.502203 " stroke="#ffffff" stroke-width="3" stroke-opacity="1" stroke-miterlimit="4"/></svg>