<svg xmlns="http://www.w3.org/2000/svg" xmlns:xlink="http://www.w3.org/1999/xlink" width="500" zoomAndPan="magnify" viewBox="0 0 375 225" height="300" preserveAspectRatio="xMidYMid meet" version="1.0"><defs><g/></defs><g fill="#ff5091" fill-opacity="1"><g transform="translate(-2.482544, 89.772623)"><g><path d="M 42.15625 -47.8125 L 50.9375 -41.6875 L 44.8125 -33.03125 L 37.359375 -38.203125 L 32.078125 -30.75 L 23.296875 -36.640625 L 29.4375 -45.40625 L 37 -40.125 Z M 42.15625 -47.8125 "/></g></g></g><g fill="#ff5091" fill-opacity="1"><g transform="translate(10.371093, 131.576996)"><g><path d="M 55.859375 -2.515625 L 6 8.171875 L 6 -55.625 C 6 -57.300781 6.519531 -58.78125 7.5625 -60.0625 C 8.601562 -61.34375 9.925781 -62.144531 11.53125 -62.46875 L 30.390625 -66.546875 C 34.796875 -67.503906 38.921875 -67.160156 42.765625 -65.515625 C 46.609375 -63.878906 49.75 -61.335938 52.1875 -57.890625 C 54.632812 -54.453125 55.859375 -50.492188 55.859375 -46.015625 Z M 12.375 -25.46875 L 50.453125 -33.640625 C 51.734375 -33.878906 52.375 -34.675781 52.375 -36.03125 C 52.375 -36.757812 52.070312 -37.363281 51.46875 -37.84375 C 50.875 -38.320312 50.210938 -38.476562 49.484375 -38.3125 L 11.296875 -30.15625 C 10.015625 -29.832031 9.375 -29.03125 9.375 -27.75 C 9.375 -27.03125 9.671875 -26.425781 10.265625 -25.9375 C 10.867188 -25.457031 11.570312 -25.300781 12.375 -25.46875 Z M 12.375 -25.46875 "/></g></g></g><g fill="#ff5091" fill-opacity="1"><g transform="translate(72.231442, 131.576996)"><g><path d="M 34.71875 -30.265625 L 38.203125 -30.265625 L 38.203125 8.53125 C 38.203125 12.53125 37.320312 16.289062 35.5625 19.8125 C 33.800781 23.34375 31.394531 26.304688 28.34375 28.703125 C 25.300781 31.109375 21.820312 32.753906 17.90625 33.640625 L -13.9375 40.484375 L -13.9375 8.171875 L 27.03125 -0.59375 C 29.351562 -1.082031 31.210938 -2.226562 32.609375 -4.03125 C 34.015625 -5.832031 34.71875 -7.890625 34.71875 -10.203125 Z M 34.71875 -30.265625 "/></g></g></g><g fill="#ff5091" fill-opacity="1"><g transform="translate(116.434566, 131.576996)"><g><path d="M 6 57.296875 L 6 24.984375 L 44.6875 16.703125 C 46.925781 16.222656 48.765625 15.082031 50.203125 13.28125 C 51.648438 11.476562 52.375 9.414062 52.375 7.09375 L 52.375 3.125 L 19.578125 10.203125 C 15.890625 11.003906 12.703125 10.320312 10.015625 8.15625 C 7.335938 6 6 3.039062 6 -0.71875 L 6 -44.203125 C 6 -45.804688 6.519531 -47.269531 7.5625 -48.59375 C 8.601562 -49.914062 9.925781 -50.734375 11.53125 -51.046875 L 30.515625 -55.015625 C 34.835938 -55.972656 38.941406 -55.628906 42.828125 -53.984375 C 46.710938 -52.347656 49.851562 -49.828125 52.25 -46.421875 C 54.65625 -43.023438 55.859375 -39.082031 55.859375 -34.59375 L 55.859375 -29.90625 L 66.671875 -32.3125 L 66.671875 0 L 55.859375 2.40625 L 55.859375 25.828125 C 55.859375 29.828125 54.976562 33.585938 53.21875 37.109375 C 51.457031 40.640625 49.050781 43.601562 46 46 C 42.957031 48.40625 39.476562 50.050781 35.5625 50.9375 Z M 9.484375 -20.0625 L 52.375 -29.3125 L 52.375 -34.234375 L 9.484375 -24.984375 Z M 9.484375 -20.0625 "/></g></g></g><g fill="#ff5091" fill-opacity="1"><g transform="translate(176.978833, 76.438471)"><g><path d="M 25.21875 -31.109375 L 31.46875 -39.765625 L 40 -33.640625 L 33.875 -24.859375 Z M 25.21875 -31.109375 "/></g></g></g><g fill="#ff5091" fill-opacity="1"><g transform="translate(183.105336, 131.576996)"><g><path d="M 58.140625 -53.578125 L 58.140625 -35.921875 L 66.671875 -37.71875 L 66.671875 -5.40625 L 24.75 3.609375 C 22.5 4.085938 20.515625 3.625 18.796875 2.21875 C 17.078125 0.820312 16.21875 -1 16.21875 -3.25 L 16.21875 -3.484375 L 0 0 L -3.609375 0.71875 L -3.609375 -31.46875 L 0 -32.3125 L 8.65625 -34.234375 L 8.65625 -63.421875 C 8.65625 -65.023438 9.171875 -66.46875 10.203125 -67.75 C 11.242188 -69.03125 12.566406 -69.832031 14.171875 -70.15625 L 32.796875 -74 C 37.203125 -74.957031 41.328125 -74.613281 45.171875 -72.96875 C 49.015625 -71.332031 52.132812 -68.8125 54.53125 -65.40625 C 56.9375 -62 58.140625 -58.054688 58.140625 -53.578125 Z M 12.125 -37.953125 C 12.125 -37.160156 12.425781 -36.519531 13.03125 -36.03125 C 13.632812 -35.550781 14.296875 -35.394531 15.015625 -35.5625 L 52.859375 -43.484375 C 54.054688 -43.722656 54.65625 -44.523438 54.65625 -45.890625 C 54.65625 -46.691406 54.375 -47.3125 53.8125 -47.75 C 53.25 -48.1875 52.570312 -48.328125 51.78125 -48.171875 L 14.046875 -40.234375 C 12.765625 -39.992188 12.125 -39.234375 12.125 -37.953125 Z M 12.125 -37.953125 "/></g></g></g><g fill="#ff5091" fill-opacity="1"><g transform="translate(249.776105, 126.171254)"><g><path d="M 19.828125 -68.71875 L 19.828125 -29.1875 L 34.59375 -32.3125 L 34.59375 0 L 16.34375 3.96875 L 16.34375 -3.484375 L 0 0 L -3.609375 0.71875 L -3.609375 -31.46875 L 0 -32.3125 L 16.34375 -35.796875 L 16.34375 -93.578125 L 25.109375 -93.578125 Z M 19.828125 -68.71875 "/></g></g></g><g fill="#ff5091" fill-opacity="1"><g transform="translate(269.477017, 181.91041)"><g><path d="M 42.15625 -47.8125 L 50.9375 -41.6875 L 44.8125 -33.03125 L 37.359375 -38.203125 L 32.078125 -30.75 L 23.296875 -36.640625 L 29.4375 -45.40625 L 37 -40.125 Z M 42.15625 -47.8125 "/></g></g></g><g fill="#ff5091" fill-opacity="1"><g transform="translate(284.372829, 124.609592)"><g><path d="M 30.15625 -29.671875 L 50.8125 -34.234375 L 50.8125 -1.921875 L 31.59375 2.28125 C 29.425781 2.757812 27.484375 2.316406 25.765625 0.953125 C 24.046875 -0.398438 23.1875 -2.195312 23.1875 -4.4375 L 23.1875 -8.65625 C 20.945312 -6.09375 18.382812 -4.1875 15.5 -2.9375 C 12.613281 -1.695312 9.8125 -0.757812 7.09375 -0.125 L 0 1.5625 L -3.609375 2.28125 L -3.609375 -29.90625 L 0 -30.75 L 21.265625 -35.3125 C 22.867188 -35.71875 24.1875 -36.539062 25.21875 -37.78125 C 26.257812 -39.019531 26.78125 -40.476562 26.78125 -42.15625 L 26.78125 -52.96875 L 30.15625 -52.96875 Z M 30.15625 -29.671875 "/></g></g></g><g fill="#ff5091" fill-opacity="1"><g transform="translate(317.407915, 167.014597)"><g><path d="M 25.59375 -33.03125 L 31.828125 -41.6875 L 40.359375 -35.5625 L 34.234375 -26.78125 Z M 25.59375 -33.03125 "/></g></g></g><g fill="#ff5091" fill-opacity="1"><g transform="translate(335.186768, 122.687558)"><g><path d="M 5.171875 -1.078125 L -3.609375 0.71875 L -3.609375 -31.46875 L 14.421875 -35.671875 C 16.015625 -36.078125 17.332031 -36.921875 18.375 -38.203125 C 19.414062 -39.484375 19.9375 -40.925781 19.9375 -42.53125 L 19.9375 -53.09375 L 23.421875 -53.09375 L 23.421875 -23.546875 C 23.421875 -17.941406 21.738281 -13.078125 18.375 -8.953125 C 15.007812 -4.828125 10.609375 -2.203125 5.171875 -1.078125 Z M 5.171875 -1.078125 "/></g></g></g></svg>