<?xml version="1.0" encoding="UTF-8" standalone="no" ?>
<!DOCTYPE svg PUBLIC "-//W3C//DTD SVG 1.1//EN" "http://www.w3.org/Graphics/SVG/1.1/DTD/svg11.dtd">
<svg xmlns="http://www.w3.org/2000/svg" xmlns:xlink="http://www.w3.org/1999/xlink" version="1.1" width="900" height="400" viewBox="0 0 900 400" xml:space="preserve">
<desc>Created with Fabric.js 5.2.4</desc>
<defs>
</defs>
<g transform="matrix(1 0 0 1 450 200)" id="a9930367-e014-4360-8324-5b90d224e87c"  >
<rect style="stroke: none; stroke-width: 1; stroke-dasharray: none; stroke-linecap: butt; stroke-dashoffset: 0; stroke-linejoin: miter; stroke-miterlimit: 4; fill: rgb(127,45,251); fill-rule: nonzero; opacity: 1;" vector-effect="non-scaling-stroke"  x="-450" y="-200" rx="0" ry="0" width="900" height="400" />
</g>
<g transform="matrix(0 0 0 0 0 0)" id="e2ed3eee-6778-4170-a5b8-79819e8cc7a0"  >
</g>
<g transform="matrix(1.72 0 0 1.72 441.11 204.2)"  >
<g style="" vector-effect="non-scaling-stroke"   >
		<g transform="matrix(1.33 0 0 1.33 -217.41 -85.03)"  >
<path style="stroke: none; stroke-width: 1; stroke-dasharray: none; stroke-linecap: butt; stroke-dashoffset: 0; stroke-linejoin: miter; stroke-miterlimit: 4; fill: rgb(255,255,255); fill-rule: nonzero; opacity: 1;" vector-effect="non-scaling-stroke"  transform=" translate(-39.27, 41.57)" d="M 44.609375 -50.59375 L 53.890625 -44.109375 L 47.40625 -34.953125 L 39.53125 -40.421875 L 33.9375 -32.546875 L 24.65625 -38.765625 L 31.140625 -48.046875 L 39.15625 -42.453125 Z M 44.609375 -50.59375" stroke-linecap="round" />
</g>
		<g transform="matrix(1.33 0 0 1.33 -208.03 -12.28)"  >
<path style="stroke: none; stroke-width: 1; stroke-dasharray: none; stroke-linecap: butt; stroke-dashoffset: 0; stroke-linejoin: miter; stroke-miterlimit: 4; fill: rgb(255,255,255); fill-rule: nonzero; opacity: 1;" vector-effect="non-scaling-stroke"  transform=" translate(-32.73, 31.17)" d="M 59.109375 -2.671875 L 6.359375 8.640625 L 6.359375 -58.859375 C 6.359375 -60.628906 6.90625 -62.191406 8 -63.546875 C 9.101562 -64.910156 10.503906 -65.757812 12.203125 -66.09375 L 32.15625 -70.421875 C 36.820312 -71.429688 41.1875 -71.066406 45.25 -69.328125 C 49.320312 -67.597656 52.648438 -64.910156 55.234375 -61.265625 C 57.816406 -57.617188 59.109375 -53.425781 59.109375 -48.6875 Z M 13.09375 -26.953125 L 53.390625 -35.59375 C 54.742188 -35.84375 55.421875 -36.6875 55.421875 -38.125 C 55.421875 -38.894531 55.101562 -39.53125 54.46875 -40.03125 C 53.832031 -40.539062 53.132812 -40.710938 52.375 -40.546875 L 11.953125 -31.90625 C 10.597656 -31.5625 9.921875 -30.710938 9.921875 -29.359375 C 9.921875 -28.597656 10.238281 -27.960938 10.875 -27.453125 C 11.507812 -26.941406 12.25 -26.773438 13.09375 -26.953125 Z M 13.09375 -26.953125" stroke-linecap="round" />
</g>
		<g transform="matrix(1.33 0 0 1.33 -147.3 36.48)"  >
<path style="stroke: none; stroke-width: 1; stroke-dasharray: none; stroke-linecap: butt; stroke-dashoffset: 0; stroke-linejoin: miter; stroke-miterlimit: 4; fill: rgb(255,255,255); fill-rule: nonzero; opacity: 1;" vector-effect="non-scaling-stroke"  transform=" translate(-12.84, -5.4)" d="M 36.734375 -32.03125 L 40.421875 -32.03125 L 40.421875 9.03125 C 40.421875 13.257812 39.488281 17.238281 37.625 20.96875 C 35.757812 24.695312 33.21875 27.832031 30 30.375 C 26.78125 32.914062 23.09375 34.65625 18.9375 35.59375 L -14.75 42.828125 L -14.75 8.640625 L 28.59375 -0.640625 C 31.050781 -1.140625 33.019531 -2.34375 34.5 -4.25 C 35.988281 -6.164062 36.734375 -8.347656 36.734375 -10.796875 Z M 36.734375 -32.03125" stroke-linecap="round" />
</g>
		<g transform="matrix(1.33 0 0 1.33 -50.8 30.44)"  >
<path style="stroke: none; stroke-width: 1; stroke-dasharray: none; stroke-linecap: butt; stroke-dashoffset: 0; stroke-linejoin: miter; stroke-miterlimit: 4; fill: rgb(255,255,255); fill-rule: nonzero; opacity: 1;" vector-effect="non-scaling-stroke"  transform=" translate(-38.45, -0.93)" d="M 6.359375 60.625 L 6.359375 26.4375 L 47.28125 17.671875 C 49.65625 17.160156 51.601562 15.953125 53.125 14.046875 C 54.65625 12.140625 55.421875 9.957031 55.421875 7.5 L 55.421875 3.3125 L 20.71875 10.796875 C 16.820312 11.648438 13.453125 10.929688 10.609375 8.640625 C 7.773438 6.359375 6.359375 3.222656 6.359375 -0.765625 L 6.359375 -46.78125 C 6.359375 -48.46875 6.90625 -50.007812 8 -51.40625 C 9.101562 -52.8125 10.503906 -53.679688 12.203125 -54.015625 L 32.28125 -58.21875 C 36.863281 -59.226562 41.207031 -58.863281 45.3125 -57.125 C 49.425781 -55.394531 52.753906 -52.726562 55.296875 -49.125 C 57.835938 -45.519531 59.109375 -41.347656 59.109375 -36.609375 L 59.109375 -31.65625 L 70.546875 -34.1875 L 70.546875 0 L 59.109375 2.546875 L 59.109375 27.328125 C 59.109375 31.566406 58.175781 35.550781 56.3125 39.28125 C 54.445312 43.007812 51.90625 46.144531 48.6875 48.6875 C 45.46875 51.226562 41.78125 52.960938 37.625 53.890625 Z M 10.046875 -21.234375 L 55.421875 -31.015625 L 55.421875 -36.21875 L 10.046875 -26.4375 Z M 10.046875 -21.234375" stroke-linecap="round" />
</g>
		<g transform="matrix(1.33 0 0 1.33 29.44 -94.01)"  >
<path style="stroke: none; stroke-width: 1; stroke-dasharray: none; stroke-linecap: butt; stroke-dashoffset: 0; stroke-linejoin: miter; stroke-miterlimit: 4; fill: rgb(255,255,255); fill-rule: nonzero; opacity: 1;" vector-effect="non-scaling-stroke"  transform=" translate(-34.51, 34.2)" d="M 26.6875 -32.921875 L 33.296875 -42.078125 L 42.328125 -35.59375 L 35.84375 -26.3125 Z M 26.6875 -32.921875" stroke-linecap="round" />
</g>
		<g transform="matrix(1.33 0 0 1.33 36.47 -20.63)"  >
<path style="stroke: none; stroke-width: 1; stroke-dasharray: none; stroke-linecap: butt; stroke-dashoffset: 0; stroke-linejoin: miter; stroke-miterlimit: 4; fill: rgb(255,255,255); fill-rule: nonzero; opacity: 1;" vector-effect="non-scaling-stroke"  transform=" translate(-33.37, 37.43)" d="M 61.515625 -56.6875 L 61.515625 -38 L 70.546875 -39.90625 L 70.546875 -5.71875 L 26.1875 3.8125 C 23.8125 4.320312 21.710938 3.832031 19.890625 2.34375 C 18.066406 0.863281 17.15625 -1.0625 17.15625 -3.4375 L 17.15625 -3.6875 L 0 0 L -3.8125 0.765625 L -3.8125 -33.296875 L 0 -34.1875 L 9.15625 -36.21875 L 9.15625 -67.109375 C 9.15625 -68.804688 9.703125 -70.332031 10.796875 -71.6875 C 11.898438 -73.039062 13.300781 -73.890625 15 -74.234375 L 34.703125 -78.296875 C 39.359375 -79.316406 43.71875 -78.957031 47.78125 -77.21875 C 51.851562 -75.476562 55.160156 -72.804688 57.703125 -69.203125 C 60.242188 -65.609375 61.515625 -61.4375 61.515625 -56.6875 Z M 12.84375 -40.171875 C 12.84375 -39.316406 13.160156 -38.632812 13.796875 -38.125 C 14.429688 -37.625 15.128906 -37.457031 15.890625 -37.625 L 55.921875 -46.015625 C 57.191406 -46.265625 57.828125 -47.113281 57.828125 -48.5625 C 57.828125 -49.40625 57.53125 -50.054688 56.9375 -50.515625 C 56.351562 -50.984375 55.632812 -51.132812 54.78125 -50.96875 L 14.875 -42.578125 C 13.519531 -42.328125 12.84375 -41.523438 12.84375 -40.171875 Z M 12.84375 -40.171875" stroke-linecap="round" />
</g>
		<g transform="matrix(1.33 0 0 1.33 107.96 -41.61)"  >
<path style="stroke: none; stroke-width: 1; stroke-dasharray: none; stroke-linecap: butt; stroke-dashoffset: 0; stroke-linejoin: miter; stroke-miterlimit: 4; fill: rgb(255,255,255); fill-rule: nonzero; opacity: 1;" vector-effect="non-scaling-stroke"  transform=" translate(-16.4, 47.41)" d="M 20.96875 -72.703125 L 20.96875 -30.890625 L 36.609375 -34.1875 L 36.609375 0 L 17.28125 4.1875 L 17.28125 -3.6875 L 0 0 L -3.8125 0.765625 L -3.8125 -33.296875 L 0 -34.1875 L 17.28125 -37.875 L 17.28125 -99.015625 L 26.5625 -99.015625 Z M 20.96875 -72.703125" stroke-linecap="round" />
</g>
		<g transform="matrix(1.33 0 0 1.33 166.27 44.96)"  >
<path style="stroke: none; stroke-width: 1; stroke-dasharray: none; stroke-linecap: butt; stroke-dashoffset: 0; stroke-linejoin: miter; stroke-miterlimit: 4; fill: rgb(255,255,255); fill-rule: nonzero; opacity: 1;" vector-effect="non-scaling-stroke"  transform=" translate(-39.27, 41.57)" d="M 44.609375 -50.59375 L 53.890625 -44.109375 L 47.40625 -34.953125 L 39.53125 -40.421875 L 33.9375 -32.546875 L 24.65625 -38.765625 L 31.140625 -48.046875 L 39.15625 -42.453125 Z M 44.609375 -50.59375" stroke-linecap="round" />
</g>
		<g transform="matrix(1.33 0 0 1.33 168.18 -16.15)"  >
<path style="stroke: none; stroke-width: 1; stroke-dasharray: none; stroke-linecap: butt; stroke-dashoffset: 0; stroke-linejoin: miter; stroke-miterlimit: 4; fill: rgb(255,255,255); fill-rule: nonzero; opacity: 1;" vector-effect="non-scaling-stroke"  transform=" translate(-24.98, 26.72)" d="M 31.90625 -31.390625 L 53.765625 -36.21875 L 53.765625 -2.03125 L 33.4375 2.421875 C 31.144531 2.921875 29.085938 2.453125 27.265625 1.015625 C 25.441406 -0.421875 24.53125 -2.328125 24.53125 -4.703125 L 24.53125 -9.15625 C 22.15625 -6.4375 19.441406 -4.421875 16.390625 -3.109375 C 13.347656 -1.796875 10.382812 -0.800781 7.5 -0.125 L 0 1.65625 L -3.8125 2.421875 L -3.8125 -31.65625 L 0 -32.546875 L 22.5 -37.375 C 24.195312 -37.789062 25.59375 -38.65625 26.6875 -39.96875 C 27.789062 -41.289062 28.34375 -42.835938 28.34375 -44.609375 L 28.34375 -56.0625 L 31.90625 -56.0625 Z M 31.90625 -31.390625" stroke-linecap="round" />
</g>
		<g transform="matrix(1.33 0 0 1.33 228.07 31.07)"  >
<path style="stroke: none; stroke-width: 1; stroke-dasharray: none; stroke-linecap: butt; stroke-dashoffset: 0; stroke-linejoin: miter; stroke-miterlimit: 4; fill: rgb(255,255,255); fill-rule: nonzero; opacity: 1;" vector-effect="non-scaling-stroke"  transform=" translate(-34.89, 36.23)" d="M 27.078125 -34.953125 L 33.6875 -44.109375 L 42.703125 -37.625 L 36.21875 -28.34375 Z M 27.078125 -34.953125" stroke-linecap="round" />
</g>
		<g transform="matrix(1.33 0 0 1.33 220.59 -20.18)"  >
<path style="stroke: none; stroke-width: 1; stroke-dasharray: none; stroke-linecap: butt; stroke-dashoffset: 0; stroke-linejoin: miter; stroke-miterlimit: 4; fill: rgb(255,255,255); fill-rule: nonzero; opacity: 1;" vector-effect="non-scaling-stroke"  transform=" translate(-10.48, 27.71)" d="M 5.46875 -1.140625 L -3.8125 0.765625 L -3.8125 -33.296875 L 15.25 -37.75 C 16.945312 -38.175781 18.34375 -39.066406 19.4375 -40.421875 C 20.539062 -41.773438 21.09375 -43.300781 21.09375 -45 L 21.09375 -56.1875 L 24.78125 -56.1875 L 24.78125 -24.90625 C 24.78125 -18.976562 23 -13.832031 19.4375 -9.46875 C 15.882812 -5.101562 11.226562 -2.328125 5.46875 -1.140625 Z M 5.46875 -1.140625" stroke-linecap="round" />
</g>
		<g transform="matrix(0.97 -0.24 0.24 0.97 230.06 55.86)"  >
<path style="stroke: rgb(255,255,255); stroke-width: 3; stroke-dasharray: none; stroke-linecap: butt; stroke-dashoffset: 0; stroke-linejoin: miter; stroke-miterlimit: 4; fill: rgb(255,255,255); fill-rule: nonzero; opacity: 1;" vector-effect="non-scaling-stroke"  transform=" translate(-12.1, -1.5)" d="M 0.000811547 1.497831 L 24.202594 1.501355" stroke-linecap="round" />
</g>
		<g transform="matrix(0.95 -0.31 0.31 0.95 -132.92 -12.27)"  >
<path style="stroke: rgb(255,255,255); stroke-width: 3; stroke-dasharray: none; stroke-linecap: butt; stroke-dashoffset: 0; stroke-linejoin: miter; stroke-miterlimit: 4; fill: rgb(255,255,255); fill-rule: nonzero; opacity: 1;" vector-effect="non-scaling-stroke"  transform=" translate(-29.51, -1.5)" d="M 0.00166066 1.500888 L 59.014892 1.502203" stroke-linecap="round" />
</g>
</g>
</g>
<g transform="matrix(0 0 0 0 0 0)"  >
<g style=""   >
</g>
</g>
<g transform="matrix(0 0 0 0 0 0)"  >
<g style=""   >
</g>
</g>
<g transform="matrix(0 0 0 0 0 0)"  >
<g style=""   >
</g>
</g>
</svg>